<?xml version="1.0" encoding="iso-8859-1"?>
<!-- Uploaded to: SVG Repo, www.svgrepo.com, Generator: SVG Repo Mixer Tools -->
<svg height="800px" width="800px" version="1.1" id="Capa_1" xmlns="http://www.w3.org/2000/svg" xmlns:xlink="http://www.w3.org/1999/xlink" 
	 viewBox="0 0 175.216 175.216" xml:space="preserve">
<g>
	<path style="fill:#FB7598;" d="M168.357,46.176l-5.584-5.584c-3.199-3.199-8.386-3.199-11.585,0l-5.55,5.549V8.191
		c0-4.524-3.667-8.191-8.191-8.191h-7.898c-4.524,0-8.192,3.667-8.192,8.191v62.231l-16.432,16.431V42.774
		c0-4.524-3.667-8.191-8.192-8.191h-7.897c-4.524,0-8.192,3.667-8.192,8.191v73.837L52.281,88.249
		c0.001-0.057,0.009-0.111,0.009-0.168V29.908c0-4.524-3.668-8.192-8.192-8.192H36.2c-4.524,0-8.192,3.668-8.192,8.192v34.068
		l-3.979-3.98c-3.199-3.199-8.386-3.199-11.585,0l-5.585,5.585c-3.199,3.199-3.199,8.386,0,11.585l73.785,73.785v16.072
		c0,4.524,3.667,8.192,8.192,8.192h7.897c4.524,0,8.192-3.668,8.192-8.192v-45.866c0.125-0.11,0.252-0.216,0.371-0.334
		l63.061-63.061C171.556,54.563,171.556,49.375,168.357,46.176z"/>
	<path style="fill:#FF9BB1;" d="M81.452,45.408c-0.273,0-0.54,0.025-0.809,0.041V73.79c0.269,0.015,0.536,0.041,0.809,0.041
		c7.849,0,14.211-6.363,14.211-14.212C95.664,51.771,89.302,45.408,81.452,45.408z M80.644,113.396v3.215l-5.491-5.49
		c-0.3-0.027-0.604-0.046-0.911-0.046c-5.523,0-10,4.477-10,10c0,5.522,4.477,10,10,10c5.523,0,10-4.477,10-10
		C84.241,117.988,82.842,115.23,80.644,113.396z M52.29,30.502c-1.752-1.109-3.822-1.761-6.048-1.761
		c-6.259,0-11.334,5.074-11.334,11.334c0,6.259,5.074,11.333,11.334,11.333c2.227,0,4.296-0.651,6.048-1.761V30.502z
		 M54.908,108.408c-1.473,0-2.666,1.194-2.666,2.667c0,1.473,1.194,2.666,2.666,2.666c1.473,0,2.667-1.193,2.667-2.666
		C57.575,109.603,56.381,108.408,54.908,108.408z M34.908,50.953c-2.393,0-4.333,1.94-4.333,4.333c0,2.394,1.94,4.333,4.333,4.333
		c2.394,0,4.334-1.939,4.334-4.333C39.241,52.893,37.302,50.953,34.908,50.953z M144.574,58.075c0,1.473,1.194,2.666,2.667,2.666
		c1.473,0,2.667-1.193,2.667-2.666c0-1.473-1.194-2.667-2.667-2.667C145.769,55.408,144.574,56.603,144.574,58.075z M14.575,76.941
		c-2.249,0-4.332,0.699-6.053,1.888L23.353,93.66c1.188-1.72,1.888-3.804,1.888-6.053C25.241,81.717,20.466,76.941,14.575,76.941z
		 M135.165,0h-5.617c-4.524,0-8.192,3.667-8.192,8.191v7.222c1.022,0.299,2.1,0.466,3.218,0.466c6.335,0,11.471-5.136,11.471-11.471
		C136.046,2.846,135.731,1.357,135.165,0z M128.241,37.408c-2.393,0-4.334,1.94-4.334,4.333c0,2.394,1.94,4.334,4.334,4.334
		c2.393,0,4.333-1.94,4.333-4.334C132.575,39.349,130.635,37.408,128.241,37.408z M145.638,20.383
		c-1.304-1.025-2.943-1.642-4.729-1.642c-4.234,0-7.667,3.433-7.667,7.667s3.433,7.667,7.667,7.667c1.786,0,3.426-0.616,4.729-1.642
		V20.383z M149.908,67.871c-4.234,0-7.667,3.433-7.667,7.667c0,2.288,1.008,4.337,2.598,5.741l10.811-10.811
		C154.244,68.88,152.197,67.871,149.908,67.871z M92.651,146.741c0,5.892,4.776,10.667,10.667,10.667
		c0.548,0,1.082-0.055,1.607-0.134v-21.065c-0.525-0.08-1.06-0.134-1.607-0.134C97.427,136.075,92.651,140.851,92.651,146.741z
		 M95.664,79.335c2.097,0,3.797-1.7,3.797-3.797s-1.7-3.797-3.797-3.797c-2.097,0-3.796,1.7-3.796,3.797
		S93.567,79.335,95.664,79.335z M119.575,89.741c-5.523,0-10,4.477-10,10c0,4.552,3.044,8.387,7.206,9.597l12.391-12.391
		C127.961,92.786,124.127,89.741,119.575,89.741z"/>
</g>
</svg>