<?xml version="1.0" encoding="iso-8859-1"?>

<!DOCTYPE svg PUBLIC "-//W3C//DTD SVG 1.1//EN" "http://www.w3.org/Graphics/SVG/1.1/DTD/svg11.dtd">
<!-- Uploaded to: SVG Repo, www.svgrepo.com, Generator: SVG Repo Mixer Tools -->
<svg height="800px" width="800px" version="1.1" id="_x34_" xmlns="http://www.w3.org/2000/svg" xmlns:xlink="http://www.w3.org/1999/xlink" 
	 viewBox="0 0 512 512"  xml:space="preserve">
<g>
	<g>
		<polygon style="fill:#F9D4D5;" points="170.547,166.091 112.1,226.348 128.891,243.721 199.685,170.739 		"/>
		<polygon style="fill:#F0C0C0;" points="141.712,161.486 97.039,210.77 112.1,226.348 170.547,166.091 		"/>
		<polygon style="fill:#F0C0C0;" points="286.785,184.621 257.95,180.022 196.838,243.046 230.624,242.527 		"/>
		<polygon style="fill:#F9D4D5;" points="228.817,175.38 162.687,243.566 196.838,243.046 257.95,180.022 		"/>
		<polygon style="fill:#F0C0C0;" points="199.685,170.739 128.891,243.721 129.238,244.074 162.687,243.566 228.817,175.38 		"/>
	</g>
	<g>
		<polygon style="fill:#E9BCBA;" points="115.935,50.577 144.03,81.492 164.519,77.203 125.648,28.723 		"/>
		<polygon style="fill:#F9D4D5;" points="125.648,28.723 164.519,77.203 189.219,72.029 135.929,5.589 		"/>
		<polygon style="fill:#F9D4D5;" points="191.912,0 163.467,0 216.637,66.285 240.992,61.191 		"/>
		<polygon style="fill:#E9BCBA;" points="138.41,0 135.929,5.589 189.219,72.029 216.637,66.285 163.467,0 		"/>
		<polygon style="fill:#E9BCBA;" points="264.863,56.203 217.095,0 191.912,0 240.992,61.191 		"/>
	</g>
	<polygon style="fill:#F29D9D;" points="363.059,21.309 363.059,195.582 179.292,195.582 155.703,170.107 153.83,168.102 
		149.018,162.953 125.419,137.491 106.434,137.491 106.434,61.414 125.419,61.414 139.592,53.926 153.292,46.709 153.697,46.505 
		194.14,25.183 201.493,21.309 	"/>
	<g>
		<path style="fill:#EC7272;" d="M214.861,21.309c0,8.485-4.147,15.974-10.564,20.523c-4.209,3.076-9.352,4.877-14.904,4.877
			h-36.101l0.406-0.204l40.442-21.322l7.353-3.874H214.861z"/>
		<path style="fill:#EE8181;" d="M212.72,79.394c0,1.207-0.068,2.408-0.266,3.547c-0.935,7.018-4.747,13.103-10.224,17.119
			c-4.209,3.001-9.365,4.808-14.978,4.808h-48.195c-14.108,0-25.468-11.431-25.468-25.474c0-7.08,2.806-13.369,7.352-17.979h4.478
			l14.173-7.488h47.659c5.613,0,10.769,1.813,14.978,4.815c4.474,3.274,7.885,7.959,9.426,13.443
			C212.385,74.455,212.72,76.856,212.72,79.394z"/>
		<path style="fill:#EC7272;" d="M212.72,195.582h-33.428l-23.589-25.474h31.549c5.613,0,10.769,1.807,14.978,4.815
			C208.579,179.54,212.72,187.09,212.72,195.582z"/>
		<path style="fill:#EC7272;" d="M212.72,137.491c0,2.47-0.335,4.883-0.997,7.155c-1.609,5.478-5.019,10.225-9.494,13.499
			c-4.209,3.008-9.365,4.809-14.978,4.809h-38.233l-23.599-25.462h-11.83c0-7.018,2.806-13.437,7.418-18.053
			c4.614-4.611,11.032-7.414,18.05-7.414h48.195c5.613,0,10.769,1.739,14.978,4.808c5.409,3.943,9.222,10.027,10.224,17.045
			C212.651,135.077,212.72,136.29,212.72,137.491z"/>
	</g>
	<g>
		<polygon style="fill:#F0C0C0;" points="60.817,4.4 36.491,42.42 91.224,42.42 		"/>
		<polygon style="fill:#F0C0C0;" points="60.817,194.523 91.224,156.497 36.491,156.497 		"/>
		<polygon style="fill:#F0C0C0;" points="106.428,80.446 12.161,80.446 0,99.465 12.161,118.471 106.428,118.471 		"/>
		<polygon style="fill:#F9D4D5;" points="106.428,61.439 91.224,42.42 36.491,42.42 12.161,80.446 106.428,80.446 		"/>
		<polygon style="fill:#F9D4D5;" points="106.428,118.471 12.161,118.471 36.491,156.497 91.224,156.497 106.428,137.484 		"/>
	</g>
	<g>
		<path style="fill:#F3AAAA;" d="M252.825,46.709c0,2.538-0.328,4.945-1.058,7.217c-3.076,10.565-12.91,18.257-24.404,18.257
			h-48.201c-11.567,0-21.324-7.693-24.401-18.257c-0.73-2.271-1.064-4.679-1.064-7.217v-0.204l40.442-21.322l7.353-3.874h25.87
			C241.4,21.309,252.825,32.672,252.825,46.709z"/>
		<path style="fill:#F08E8E;" d="M252.825,108.427c0,14.055-11.395,25.456-25.456,25.456h-48.238
			c-14.061,0-25.458-11.401-25.458-25.456l0,0c0-14.062,11.397-25.462,25.458-25.462h48.238
			C241.431,82.965,252.825,94.365,252.825,108.427L252.825,108.427z"/>
		<path style="fill:#F08E8E;" d="M155.703,170.107l23.589,25.474h12.372h21.056h14.643c14.037,0,25.462-11.431,25.462-25.474
			c0-2.47-0.328-4.877-0.996-7.155c-3.138-10.553-12.898-18.307-24.466-18.307h-15.64h-18.988h-13.573
			c-7.018,0-13.43,2.872-18.047,7.489c-3.011,3.001-5.218,6.684-6.354,10.818c-0.535,1.671-0.866,3.342-0.931,5.149L155.703,170.107
			z"/>
	</g>
	<g>
		<path style="fill:#EC7272;" d="M292.937,21.309c0,8.485-4.14,15.974-10.559,20.523c-4.215,3.076-9.358,4.877-14.91,4.877h-48.262
			c-5.545,0-10.695-1.801-14.909-4.877c-5.348-3.813-9.16-9.761-10.157-16.649l7.353-3.874H292.937z"/>
		<path style="fill:#EE8181;" d="M290.802,79.375c0,14.056-11.401,25.462-25.462,25.462h-48.232
			c-14.061,0-25.461-11.407-25.461-25.462l0,0c0-14.062,11.4-25.462,25.461-25.462h48.232
			C279.401,53.913,290.802,65.313,290.802,79.375L290.802,79.375z"/>
		<path style="fill:#EA6A6A;" d="M290.802,195.582h-99.137c0-7.086,2.81-13.443,7.415-18.047c1.009-0.941,2.012-1.875,3.15-2.612
			c4.208-3.008,9.352-4.815,14.903-4.815h48.195c5.614,0,10.77,1.807,14.978,4.815C286.655,179.54,290.802,187.09,290.802,195.582z"
			/>
		<path style="fill:#EC7272;" d="M290.802,137.466c0,14.056-11.401,25.462-25.462,25.462h-48.232
			c-14.061,0-25.461-11.407-25.461-25.462l0,0c0-14.061,11.4-25.456,25.461-25.456h48.232
			C279.401,112.01,290.802,123.405,290.802,137.466L290.802,137.466z"/>
	</g>
	<g>
		<path style="fill:#F3AAAA;" d="M330.9,46.74c0,14.055-11.4,25.462-25.462,25.462h-48.238c-14.061,0-25.456-11.407-25.456-25.462
			l0,0c0-14.062,11.395-25.456,25.456-25.456h48.238C319.5,21.284,330.9,32.678,330.9,46.74L330.9,46.74z"/>
		<path style="fill:#F08E8E;" d="M330.9,108.427c0,14.055-11.4,25.456-25.462,25.456h-48.238c-14.061,0-25.456-11.401-25.456-25.456
			l0,0c0-14.062,11.395-25.462,25.456-25.462h48.238C319.5,82.965,330.9,94.365,330.9,108.427L330.9,108.427z"/>
		<path style="fill:#F08E8E;" d="M330.9,170.101c0,14.062-11.4,25.462-25.462,25.462h-48.238c-14.061,0-25.456-11.4-25.456-25.462
			l0,0c0-14.061,11.395-25.449,25.456-25.449h48.238C319.5,144.652,330.9,156.04,330.9,170.101L330.9,170.101z"/>
	</g>
	<g>
		<path style="fill:#EC7272;" d="M363.059,21.309v18.382c-4.543,4.344-10.688,7.018-17.515,7.018h-48.263
			c-5.545,0-10.688-1.801-14.903-4.877c-6.418-4.549-10.559-12.038-10.559-20.523H363.059z"/>
		<path style="fill:#EE8181;" d="M368.871,79.375c0,14.056-11.394,25.462-25.456,25.462h-48.238
			c-14.062,0-25.462-11.407-25.462-25.462l0,0c0-14.062,11.4-25.462,25.462-25.462h48.238
			C357.477,53.913,368.871,65.313,368.871,79.375L368.871,79.375z"/>
		<path style="fill:#EA6A6A;" d="M363.059,179.335v16.247H269.74c0-7.086,2.81-13.443,7.427-18.047
			c0.996-0.941,1.999-1.875,3.138-2.612c4.209-3.008,9.29-4.815,14.842-4.815h48.269C351.3,170.107,358.381,173.722,363.059,179.335
			z"/>
		<path style="fill:#EC7272;" d="M368.871,137.466c0,14.056-11.394,25.462-25.456,25.462h-48.238
			c-14.062,0-25.462-11.407-25.462-25.462l0,0c0-14.061,11.4-25.456,25.462-25.456h48.238
			C357.477,112.01,368.871,123.405,368.871,137.466L368.871,137.466z"/>
	</g>
	<g>
		<path style="fill:#F3AAAA;" d="M408.97,46.74c0,14.055-11.401,25.462-25.462,25.462H335.27c-14.062,0-25.456-11.407-25.456-25.462
			l0,0c0-14.062,11.394-25.456,25.456-25.456h48.238C397.569,21.284,408.97,32.678,408.97,46.74L408.97,46.74z"/>
		<path style="fill:#F08E8E;" d="M408.97,108.427c0,14.055-11.401,25.456-25.462,25.456H335.27
			c-14.062,0-25.456-11.401-25.456-25.456l0,0c0-14.062,11.394-25.462,25.456-25.462h48.238
			C397.569,82.965,408.97,94.365,408.97,108.427L408.97,108.427z"/>
		<path style="fill:#F08E8E;" d="M408.97,170.101c0,14.062-11.401,25.462-25.462,25.462H335.27c-14.062,0-25.456-11.4-25.456-25.462
			l0,0c0-14.061,11.394-25.449,25.456-25.449h48.238C397.569,144.652,408.97,156.04,408.97,170.101L408.97,170.101z"/>
	</g>
	<polygon style="fill:#F0C0C0;" points="385.099,169.971 391.467,234.381 427.538,234.381 397.836,167.05 	"/>
	<polygon style="fill:#EC7272;" points="512,21.309 512,71.979 409.051,195.582 363.059,195.582 337.659,102.659 363.059,21.309 	
		"/>
	<path style="fill:#FFFFFF;" d="M442.311,62.473c0,10.503-8.504,19.019-19.007,19.019c-10.503,0-19.019-8.516-19.019-19.019
		c0-10.497,8.517-19.007,19.019-19.007C433.807,43.466,442.311,51.976,442.311,62.473z"/>
	<path style="fill:#565252;" d="M432.618,62.473c0,5.149-4.165,9.314-9.315,9.314c-5.149,0-9.314-4.165-9.314-9.314
		c0-5.143,4.165-9.309,9.314-9.309C428.453,53.164,432.618,57.33,432.618,62.473z"/>
	<polygon style="fill:#F9D4D5;" points="389.957,175.826 381.169,240.236 331.408,240.236 372.392,172.905 	"/>
	<g>
		<polygon style="fill:#A24949;" points="512,29.46 512,49.055 451.174,113.824 441.407,104.664 		"/>
	</g>
</g>
</svg>