<?xml version="1.0" encoding="utf-8"?>
<!-- Uploaded to: SVG Repo, www.svgrepo.com, Generator: SVG Repo Mixer Tools -->
<svg width="800px" height="800px" viewBox="0 0 1024 1024" class="icon"  version="1.1" xmlns="http://www.w3.org/2000/svg"><path d="M237.6 1016.1c-8.3 0-15-6.7-15-15 0-34.8 10.7-53 20.1-69.1 8.6-14.6 15.9-27.2 15.9-53.9s-7.4-39.3-15.9-53.9c-9.4-16.1-20.1-34.3-20.1-69.1s10.7-53 20.1-69.1c8.6-14.6 15.9-27.2 15.9-53.9s-7.4-39.3-15.9-53.9c-9.4-16.1-20.1-34.3-20.1-69.1s10.7-53 20.1-69.1c8.6-14.6 15.9-27.2 15.9-53.9 0-8.3 6.7-15 15-15s15 6.7 15 15c0 34.8-10.7 53-20.1 69.1-8.6 14.6-15.9 27.2-15.9 53.9s7.4 39.3 15.9 53.9c9.4 16.1 20.1 34.3 20.1 69.1s-10.7 53-20.1 69.1c-8.6 14.6-15.9 27.2-15.9 53.9s7.4 39.3 15.9 53.9c9.4 16.1 20.1 34.3 20.1 69.1s-10.7 53-20.1 69.1c-8.6 14.6-15.9 27.2-15.9 53.9 0 8.3-6.7 15-15 15zM370.3 1016.1c-8.3 0-15-6.7-15-15 0-34.8 10.7-53 20.1-69.1 8.6-14.6 15.9-27.2 15.9-53.9s-7.4-39.3-15.9-53.9c-9.4-16.1-20.1-34.3-20.1-69.1s10.7-53 20.1-69.1c8.6-14.6 15.9-27.2 15.9-53.9s-7.4-39.3-15.9-53.9c-9.4-16.1-20.1-34.3-20.1-69.1s10.7-53 20.1-69.1c8.6-14.6 15.9-27.2 15.9-53.9 0-8.3 6.7-15 15-15s15 6.7 15 15c0 34.8-10.7 53-20.1 69.1-8.6 14.6-15.9 27.2-15.9 53.9s7.4 39.3 15.9 53.9c9.4 16.1 20.1 34.3 20.1 69.1s-10.7 53-20.1 69.1c-8.6 14.6-15.9 27.2-15.9 53.9s7.4 39.3 15.9 53.9c9.4 16.1 20.1 34.3 20.1 69.1s-10.7 53-20.1 69.1c-8.6 14.6-15.9 27.2-15.9 53.9 0 8.3-6.7 15-15 15zM497 1016.1c-8.3 0-15-6.7-15-15 0-34.8 10.7-53 20.1-69.1 8.6-14.6 15.9-27.2 15.9-53.9s-7.4-39.3-15.9-53.9c-9.4-16.1-20.1-34.3-20.1-69.1s10.7-53 20.1-69.1c8.6-14.6 15.9-27.2 15.9-53.9s-7.4-39.3-15.9-53.9c-9.4-16.1-20.1-34.3-20.1-69.1s10.7-53 20.1-69.1c8.6-14.6 15.9-27.2 15.9-53.9 0-8.3 6.7-15 15-15s15 6.7 15 15c0 34.8-10.7 53-20.1 69.1-8.6 14.6-15.9 27.2-15.9 53.9s7.4 39.3 15.9 53.9c9.4 16.1 20.1 34.3 20.1 69.1s-10.7 53-20.1 69.1c-8.6 14.6-15.9 27.2-15.9 53.9s7.4 39.3 15.9 53.9c9.4 16.1 20.1 34.3 20.1 69.1s-10.7 53-20.1 69.1c-8.6 14.6-15.9 27.2-15.9 53.9 0 8.3-6.8 15-15 15zM641.7 1016.1c-8.3 0-15-6.7-15-15 0-34.8 10.7-53 20.1-69.1 8.6-14.6 15.9-27.2 15.9-53.9s-7.4-39.3-15.9-53.9c-9.4-16.1-20.1-34.3-20.1-69.1s10.7-53 20.1-69.1c8.6-14.6 15.9-27.2 15.9-53.9s-7.4-39.3-15.9-53.9c-9.4-16.1-20.1-34.3-20.1-69.1s10.7-53 20.1-69.1c8.6-14.6 15.9-27.2 15.9-53.9 0-8.3 6.7-15 15-15s15 6.7 15 15c0 34.8-10.7 53-20.1 69.1-8.6 14.6-15.9 27.2-15.9 53.9s7.4 39.3 15.9 53.9c9.4 16.1 20.1 34.3 20.1 69.1s-10.7 53-20.1 69.1c-8.6 14.6-15.9 27.2-15.9 53.9s7.4 39.3 15.9 53.9c9.4 16.1 20.1 34.3 20.1 69.1s-10.7 53-20.1 69.1c-8.6 14.6-15.9 27.2-15.9 53.9 0 8.3-6.7 15-15 15z" fill="#0F53A8" /><path d="M834.9 430.2c-0.8-207.7-169.4-375.8-377.2-375.8S81.2 222.5 80.4 430.2h754.5z" fill="#B6CDEF" /><path d="M834.9 445.2H80.4c-4 0-7.8-1.6-10.6-4.4-2.8-2.8-4.4-6.7-4.4-10.6 0.2-52.8 10.7-104 31.3-152.2 19.8-46.5 48.1-88.3 84.1-124.2 36-35.9 77.9-64 124.5-83.7 48.3-20.4 99.5-30.7 152.4-30.7s104 10.3 152.3 30.7c46.6 19.7 88.5 47.8 124.5 83.7 36 35.9 64.3 77.6 84.1 124.2 20.5 48.2 31.1 99.4 31.3 152.2 0 4-1.6 7.8-4.4 10.6-2.8 2.8-6.6 4.4-10.6 4.4z m-739.1-30h723.8c-4-90.8-41.4-175.6-106.2-240.2C645 106.9 554.2 69.4 457.7 69.4S270.3 106.9 202 175C137.2 239.6 99.8 324.4 95.8 415.2z" fill="#0F53A8" /><path d="M220.6 236.6c-3.2 0-6.4-1-9.1-3.1-6.6-5-7.9-14.4-2.8-21 27.5-36.1 63.5-66.1 103.9-86.6 42.4-21.5 88.2-32.4 136-32.4 8.3 0 15 6.7 15 15s-6.7 15-15 15c-43.1 0-84.3 9.8-122.5 29.1-36.4 18.4-68.8 45.4-93.6 78-2.9 4-7.4 6-11.9 6z" fill="#0F53A8" /><path d="M798.4 150.9a39.2 42.2 0 1 0 78.4 0 39.2 42.2 0 1 0-78.4 0Z" fill="#89B7F5" /><path d="M837.6 208.1c-29.9 0-54.2-25.7-54.2-57.2s24.3-57.2 54.2-57.2 54.2 25.7 54.2 57.2-24.3 57.2-54.2 57.2z m0-84.5c-13.3 0-24.2 12.2-24.2 27.2s10.9 27.2 24.2 27.2c13.3 0 24.2-12.2 24.2-27.2s-10.8-27.2-24.2-27.2z" fill="#0F53A8" /><path d="M888.8 54.4a27.3 29.4 0 1 0 54.6 0 27.3 29.4 0 1 0-54.6 0Z" fill="#89B7F5" /><path d="M916.1 98.7c-23.3 0-42.3-19.9-42.3-44.4s19-44.4 42.3-44.4 42.3 19.9 42.3 44.4-19 44.4-42.3 44.4z m0-58.7c-6.8 0-12.3 6.4-12.3 14.4s5.5 14.4 12.3 14.4 12.3-6.4 12.3-14.4S922.8 40 916.1 40z" fill="#0F53A8" /></svg>