<?xml version="1.0" encoding="iso-8859-1"?>
<!-- Uploaded to: SVG Repo, www.svgrepo.com, Generator: SVG Repo Mixer Tools -->
<svg height="800px" width="800px" version="1.1" id="Layer_1" xmlns="http://www.w3.org/2000/svg" xmlns:xlink="http://www.w3.org/1999/xlink" 
	 viewBox="0 0 511.997 511.997" xml:space="preserve">
<g>
	<path style="fill:#FFC477;" d="M468.889,144.464c-29.607-43.149-69.841-66.912-113.29-66.912c-18.109,0-35.663,4.143-52.371,12.301
		c-0.728-0.394-1.453-0.79-2.186-1.167l48.97-48.964c9.085-9.087,9.087-23.819,0.002-32.906c-9.087-9.087-23.819-9.089-32.908-0.003
		l-71.3,71.294c-13.012,1.396-25.476,5.451-37.183,11.823c-16.749-8.221-34.352-12.379-52.486-12.379
		c-43.389,0-83.561,23.763-113.118,66.912C15.31,184.921,0.047,238.283,0.047,294.724s15.262,109.805,42.975,150.26
		c29.557,43.147,69.729,66.91,113.118,66.91c18.148,0,35.737-4.171,52.473-12.388c14.737,8.024,30.672,12.385,47.385,12.385l0,0
		c16.615,0,32.462-4.311,47.124-12.245c16.738,8.192,34.328,12.351,52.475,12.351c43.451,0,83.684-23.763,113.29-66.912
		c27.768-40.47,43.062-93.852,43.062-150.312C511.951,238.314,496.658,184.933,468.889,144.464z"/>
	<path style="fill:#FFC477;" d="M468.889,144.464c-29.607-43.149-69.841-66.912-113.29-66.912c-18.109,0-35.663,4.143-52.371,12.301
		c-0.728-0.394-1.453-0.79-2.186-1.167c-7.734-3.974-15.791-6.936-24.104-8.803c-6.816-1.531-13.806-2.331-20.938-2.331l0,0
		c-3.431,0-6.828,0.194-10.192,0.555c-13.012,1.396-25.476,5.451-37.183,11.825c-16.749-8.221-34.35-12.379-52.485-12.379
		c-43.389,0-83.561,23.763-113.118,66.912C15.31,184.921,0.047,238.283,0.047,294.724s15.262,109.805,42.975,150.26
		c29.557,43.147,69.729,66.91,113.118,66.91c18.148,0,35.737-4.171,52.473-12.388c14.737,8.024,30.672,12.385,47.385,12.385l0,0
		c16.615,0,32.462-4.311,47.124-12.245c16.738,8.192,34.328,12.351,52.475,12.351c43.451,0,83.684-23.763,113.29-66.912
		c27.768-40.47,43.062-93.852,43.062-150.312C511.951,238.314,496.658,184.933,468.889,144.464z"/>
</g>
<path style="fill:#A78966;" d="M276.938,79.883c8.313,1.868,16.37,4.829,24.104,8.803l48.97-48.964
	c9.085-9.087,9.087-23.821,0.002-32.906c-9.087-9.087-23.819-9.089-32.908-0.003l-71.3,71.294c3.363-0.361,6.76-0.555,10.192-0.555
	C263.131,77.552,270.121,78.352,276.938,79.883z"/>
<path style="fill:#CC7400;" d="M156.14,511.896c18.148,0,35.737-4.171,52.473-12.388c-7.855-4.278-15.373-9.591-22.477-15.858
	c-6.442-5.681-12.543-12.146-18.266-19.302c-31.584-39.491-51.48-100.274-51.48-169.626c0-69.35,19.894-130.133,51.479-169.624
	c5.724-7.159,11.83-13.627,18.275-19.31c7.106-6.267,14.626-11.58,22.482-15.858c-16.749-8.221-34.35-12.379-52.485-12.379
	c-43.389,0-83.561,23.763-113.118,66.912C15.31,184.921,0.047,238.283,0.047,294.724s15.262,109.805,42.975,150.26
	C72.579,488.133,112.751,511.896,156.14,511.896z"/>
<path style="fill:#FFB655;" d="M344.097,125.055c-5.738-7.17-11.858-13.645-18.318-19.333c-7.128-6.276-14.668-11.594-22.55-15.869
	c-0.728-0.394-1.453-0.79-2.186-1.167c-7.734-3.974-15.791-6.936-24.104-8.803c-6.816-1.531-13.806-2.331-20.938-2.331l0,0v434.341
	l0,0c16.615,0,32.462-4.311,47.124-12.245c7.888-4.267,15.433-9.579,22.567-15.849c6.465-5.682,12.588-12.151,18.331-19.317
	c31.646-39.488,51.587-100.33,51.587-169.759C395.61,225.347,375.7,164.546,344.097,125.055z"/>
<path style="fill:#EE8700;" d="M245.809,78.107c-13.012,1.396-25.476,5.451-37.183,11.825c-7.855,4.278-15.376,9.591-22.482,15.858
	c-6.445,5.684-12.551,12.151-18.275,19.31c-31.583,39.491-51.479,100.274-51.479,169.624c0,69.352,19.894,130.135,51.48,169.626
	c5.722,7.156,11.823,13.621,18.266,19.302c7.105,6.267,14.622,11.578,22.477,15.858c14.737,8.024,30.672,12.385,47.385,12.385
	V77.553C252.569,77.552,249.17,77.746,245.809,78.107z"/>
</svg>