<?xml version="1.0" encoding="iso-8859-1"?>
<!-- Uploaded to: SVG Repo, www.svgrepo.com, Generator: SVG Repo Mixer Tools -->
<svg height="800px" width="800px" version="1.1" id="Layer_1" xmlns="http://www.w3.org/2000/svg" xmlns:xlink="http://www.w3.org/1999/xlink" 
	 viewBox="0 0 511.999 511.999" xml:space="preserve">
<path style="fill:#F78A68;" d="M470.103,179.304c30.139-3.255,43.233,37.038,16.935,52.129l-113.002,64.844
	c-12.487,7.16-17.499,22.609-11.619,35.747l53.312,118.882c12.4,27.664-21.871,52.563-44.34,32.221l-96.599-87.443
	c-10.664-9.655-26.916-9.655-37.58,0l-96.599,87.443c-22.469,20.342-56.74-4.557-44.34-32.221l53.312-118.882
	c5.88-13.138,0.868-28.587-11.619-35.747L24.96,231.433c-26.298-15.09-13.203-55.384,16.935-52.129l129.536,13.963
	c14.31,1.54,27.458-8.017,30.409-22.099L228.594,43.66c6.227-29.672,48.582-29.672,54.809,0l26.754,127.507
	c2.951,14.082,16.1,23.64,30.409,22.099L470.103,179.304z M292.701,277.248c0-20.266-16.426-36.702-36.702-36.702
	s-36.702,16.436-36.702,36.702c0,20.276,16.426,36.713,36.702,36.713S292.701,297.525,292.701,277.248z"/>
<path style="fill:#FB7B76;" d="M255.999,240.546c20.276,0,36.702,16.436,36.702,36.702c0,20.276-16.426,36.713-36.702,36.713
	s-36.702-16.436-36.702-36.713C219.297,256.983,235.722,240.546,255.999,240.546z"/>
<path d="M143.192,201.062c0.391,0.043,0.781,0.064,1.167,0.064c5.434,0,10.107-4.099,10.702-9.624
	c0.638-5.918-3.644-11.232-9.562-11.869l-3.625-0.39c-5.891-0.643-11.232,3.643-11.869,9.562
	c-0.638,5.918,3.644,11.232,9.562,11.869L143.192,201.062z"/>
<path d="M509.982,195.155c-5.822-17.912-22.323-28.583-41.035-26.566l-129.535,13.963c-8.851,0.945-16.884-4.893-18.707-13.598
	L293.951,41.446c-3.869-18.432-19.12-30.818-37.952-30.818s-34.083,12.385-37.952,30.818l-26.754,127.511
	c-1.825,8.703-9.857,14.54-18.707,13.594c-5.901-0.638-11.232,3.643-11.869,9.562c-0.638,5.918,3.644,11.232,9.562,11.869
	c19.885,2.148,38.006-11.013,42.11-30.601l26.754-127.506c2.119-10.094,10.096-13.69,16.857-13.69s14.738,3.596,16.857,13.69
	l26.754,127.504c4.106,19.59,22.222,32.747,42.111,30.603l129.538-13.963c10.266-1.11,16.136,5.37,18.224,11.799
	c2.09,6.432,1.137,15.134-7.81,20.268l-112.999,64.843c-17.353,9.95-24.272,31.23-16.093,49.507l53.311,118.881
	c4.218,9.412-0.125,17.013-5.597,20.988c-5.468,3.971-14.033,5.754-21.675-1.165l-96.597-87.442
	c-14.835-13.432-37.211-13.432-52.048,0l-96.599,87.443c-7.641,6.917-16.206,5.136-21.674,1.164
	c-5.472-3.975-9.815-11.576-5.597-20.987l53.314-118.889c8.177-18.27,1.257-39.549-16.093-49.498L30.325,222.086
	c-8.947-5.134-9.901-13.836-7.81-20.268c2.09-6.429,7.966-12.904,18.227-11.799l67.508,7.277c5.914,0.636,11.232-3.643,11.87-9.561
	c0.638-5.918-3.643-11.232-9.561-11.87l-67.506-7.277c-18.727-2.022-35.216,8.654-41.037,26.566
	c-5.822,17.915,1.243,36.251,17.581,45.626l113.004,64.845c7.707,4.42,10.778,13.876,7.146,21.988L86.437,446.497
	c-7.704,17.189-2.642,36.174,12.598,47.243c7.028,5.104,14.986,7.63,22.892,7.63c9.234,0,18.396-3.447,25.916-10.255l96.599-87.443
	c6.588-5.964,16.525-5.965,23.115,0l96.597,87.442c13.96,12.637,33.572,13.693,48.809,2.625
	c15.24-11.069,20.302-30.056,12.598-47.246l-53.308-118.876c-3.635-8.12-0.564-17.576,7.146-21.996l113.002-64.844
	C508.74,231.406,515.805,213.069,509.982,195.155z"/>
<path d="M208.519,277.248c0,26.186,21.299,47.49,47.479,47.49s47.479-21.305,47.479-47.49c0-26.18-21.299-47.479-47.479-47.479
	S208.519,251.068,208.519,277.248z M255.999,251.323c14.295,0,25.925,11.63,25.925,25.925c0,14.301-11.63,25.936-25.925,25.936
	s-25.925-11.634-25.925-25.936C230.074,262.953,241.704,251.323,255.999,251.323z"/>
<path d="M245.222,204.67c0,5.952,4.826,10.777,10.777,10.777c5.951,0,10.777-4.825,10.777-10.777v-5.403
	c0-5.952-4.826-10.777-10.777-10.777c-5.951,0-10.777,4.825-10.777,10.777V204.67z"/>
<path d="M245.222,165.244c0,5.952,4.826,10.777,10.777,10.777c5.951,0,10.777-4.825,10.777-10.777v-5.403
	c0-5.952-4.826-10.777-10.777-10.777c-5.951,0-10.777,4.825-10.777,10.777V165.244z"/>
<path d="M245.222,125.809c0,5.952,4.826,10.777,10.777,10.777c5.951,0,10.777-4.825,10.777-10.777v-5.403
	c0-5.952-4.826-10.777-10.777-10.777c-5.951,0-10.777,4.825-10.777,10.777V125.809z"/>
<path d="M255.999,97.16c5.951,0,10.777-4.825,10.777-10.777V80.98c0-5.952-4.826-10.777-10.777-10.777
	c-5.951,0-10.777,4.825-10.777,10.777v5.403C245.222,92.335,250.048,97.16,255.999,97.16z"/>
<path d="M190.308,244.574l-5.142-1.67c-5.659-1.84-11.742,1.258-13.58,6.92c-1.839,5.66,1.259,11.741,6.92,13.58l5.142,1.671
	c1.106,0.359,2.228,0.53,3.332,0.53c4.543,0,8.768-2.896,10.248-7.45C199.067,252.493,195.969,246.412,190.308,244.574z"/>
<path d="M141.001,251.219l5.142,1.67c1.106,0.359,2.228,0.53,3.332,0.53c4.543,0,8.768-2.896,10.248-7.45
	c1.839-5.66-1.259-11.741-6.92-13.58l-5.142-1.67c-5.658-1.838-11.742,1.258-13.58,6.92
	C132.242,243.3,135.339,249.38,141.001,251.219z"/>
<path d="M115.305,220.209l-5.131-1.672c-5.665-1.844-11.743,1.251-13.585,6.911c-1.842,5.66,1.251,11.742,6.91,13.585l5.131,1.67
	c1.109,0.361,2.233,0.532,3.34,0.532c4.54,0,8.764-2.893,10.246-7.444C124.059,228.134,120.965,222.052,115.305,220.209z"/>
<path d="M72.642,206.346c-5.663-1.83-11.738,1.283-13.566,6.946c-1.828,5.665,1.281,11.739,6.946,13.566l5.142,1.66
	c1.1,0.356,2.216,0.524,3.312,0.524c4.551,0,8.78-2.907,10.255-7.47c1.828-5.665-1.281-11.739-6.946-13.566L72.642,206.346z"/>
<path d="M204.625,329.625l-3.178,4.372c-3.5,4.814-2.436,11.554,2.38,15.055c1.913,1.391,4.131,2.061,6.328,2.061
	c3.331,0,6.617-1.54,8.725-4.44l3.178-4.372c3.5-4.814,2.436-11.554-2.38-15.055S208.122,324.811,204.625,329.625z"/>
<path d="M196.479,359.142c-4.819-3.491-11.558-2.416-15.051,2.405l-3.166,4.372c-3.492,4.821-2.414,11.559,2.405,15.051
	c1.91,1.384,4.121,2.05,6.313,2.05c3.338,0,6.628-1.545,8.736-4.455l3.166-4.372C202.376,369.372,201.299,362.633,196.479,359.142z"
	/>
<path d="M158.268,393.427l-3.179,4.372c-3.5,4.814-2.437,11.554,2.377,15.055c1.914,1.392,4.132,2.062,6.331,2.062
	c3.33,0,6.616-1.539,8.725-4.439l3.179-4.372c3.5-4.814,2.437-11.554-2.377-15.055C168.509,387.55,161.771,388.612,158.268,393.427z
	"/>
<path d="M150.159,422.963c-4.808-3.505-11.55-2.451-15.058,2.36l-3.179,4.362c-3.506,4.809-2.449,11.551,2.36,15.057
	c1.915,1.397,4.137,2.069,6.34,2.069c3.326,0,6.608-1.535,8.718-4.429l3.179-4.362C156.025,433.211,154.969,426.47,150.159,422.963z
	"/>
<path d="M307.373,329.625c-3.498-4.815-10.242-5.879-15.054-2.38c-4.815,3.5-5.88,10.24-2.38,15.055l3.178,4.372
	c2.108,2.901,5.394,4.44,8.725,4.44c2.198,0,4.417-0.67,6.328-2.061c4.815-3.5,5.88-10.24,2.38-15.055L307.373,329.625z"/>
<path d="M313.113,374.191l3.166,4.372c2.108,2.91,5.399,4.455,8.736,4.455c2.192,0,4.404-0.666,6.313-2.05
	c4.821-3.492,5.898-10.23,2.405-15.051l-3.166-4.372c-3.493-4.822-10.231-5.895-15.051-2.405
	C310.699,362.633,309.621,369.372,313.113,374.191z"/>
<path d="M353.731,393.427c-3.5-4.814-10.243-5.878-15.056-2.377c-4.814,3.5-5.878,10.241-2.377,15.055l3.179,4.372
	c2.109,2.9,5.394,4.439,8.725,4.439c2.199,0,4.418-0.67,6.331-2.062c4.814-3.5,5.878-10.241,2.377-15.055L353.731,393.427z"/>
<path d="M362.658,442.382c2.11,2.895,5.391,4.429,8.718,4.429c2.202,0,4.424-0.672,6.34-2.069c4.81-3.506,5.866-10.248,2.36-15.057
	l-3.179-4.362c-3.507-4.81-10.248-5.867-15.058-2.36c-4.81,3.506-5.866,10.248-2.36,15.057L362.658,442.382z"/>
<path d="M326.833,242.903l-5.142,1.67c-5.661,1.84-8.759,7.919-6.92,13.58c1.48,4.555,5.704,7.45,10.248,7.45
	c1.103,0,2.226-0.171,3.332-0.53l5.142-1.671c5.661-1.84,8.759-7.919,6.92-13.58C338.574,244.163,332.495,241.061,326.833,242.903z"
	/>
<path d="M362.523,253.421c1.103,0,2.226-0.171,3.332-0.53l5.142-1.67c5.661-1.84,8.759-7.919,6.92-13.58
	c-1.84-5.66-7.918-8.76-13.581-6.92l-5.142,1.67c-5.661,1.84-8.759,7.919-6.92,13.58
	C353.755,250.525,357.979,253.421,362.523,253.421z"/>
<path d="M400.028,241.237c1.106,0,2.23-0.172,3.34-0.532l5.131-1.67c5.659-1.843,8.753-7.926,6.91-13.585
	c-1.843-5.66-7.922-8.751-13.585-6.911l-5.131,1.672c-5.659,1.843-8.753,7.925-6.91,13.584
	C391.264,238.345,395.488,241.237,400.028,241.237z"/>
<path d="M437.521,229.043c1.097,0,2.213-0.169,3.312-0.524l5.142-1.66c5.665-1.828,8.775-7.903,6.946-13.566
	c-1.828-5.663-7.902-8.776-13.566-6.946l-5.142,1.66c-5.665,1.828-8.775,7.903-6.946,13.566
	C428.74,226.137,432.97,229.043,437.521,229.043z"/>
</svg>